<?xml version="1.0" encoding="utf-8"?>
<!-- Generator: Adobe Illustrator 24.1.2, SVG Export Plug-In . SVG Version: 6.00 Build 0)  -->
<svg version="1.1" id="Layer_1" xmlns="http://www.w3.org/2000/svg" xmlns:xlink="http://www.w3.org/1999/xlink" x="0px" y="0px"
	 viewBox="0 0 144.3 212.07" style="enable-background:new 0 0 144.3 212.07;" xml:space="preserve">
<style type="text/css">
	.st0{fill:#E34F2B;}
	.st1{fill:none;}
	.st2{fill:#6A591A;}
	.st3{fill:#B49757;}
	.st4{fill:#675821;}
	.st5{fill:none;stroke:#000000;stroke-width:4;stroke-miterlimit:10;}
	.st6{fill:#F39200;}
	.st7{fill:#F2E500;}
	.st8{fill:none;stroke:#F49524;stroke-width:5;stroke-linecap:round;stroke-miterlimit:10;}
	.st9{fill:#F4991F;}
	.st10{fill:#F59A2B;}
	.st11{fill:#EFE52A;}
	.st12{fill:#A99654;}
	.st13{fill:none;stroke:#010202;stroke-miterlimit:10;}
	.st14{fill:#E34F2F;}
	.st15{fill:none;stroke:#020303;stroke-miterlimit:10;}
	.st16{fill:#89C4EC;}
	.st17{fill:#E84624;}
	.st18{fill:#8BC2EB;}
	.st19{fill:none;stroke:#CFCFCE;stroke-width:14;stroke-miterlimit:10;}
	.st20{fill:#CFCFCE;}
	.st21{fill:none;stroke:#89C4EC;stroke-width:5;stroke-linecap:round;stroke-miterlimit:10;}
	.st22{fill:none;stroke:#89C4EC;stroke-width:7;stroke-linecap:round;stroke-miterlimit:10;}
	.st23{fill:#010202;}
	.st24{clip-path:url(#SVGID_2_);fill:none;stroke:#DAEFF9;stroke-width:10;stroke-miterlimit:10;}
	.st25{clip-path:url(#SVGID_2_);fill:none;stroke:#DAEFF9;stroke-width:5;stroke-miterlimit:10;}
	.st26{fill:none;stroke:#E34F2B;stroke-width:4;stroke-linecap:round;stroke-miterlimit:10;}
	.st27{fill:#85C4EC;}
	.st28{fill:#020303;}
	.st29{fill:#FFFFFF;}
	.st30{fill:none;stroke:#000000;stroke-miterlimit:10;}
	.st31{fill:none;stroke:#000000;stroke-width:3;stroke-linecap:round;stroke-miterlimit:10;}
	.st32{fill:none;stroke:#010202;stroke-linecap:round;stroke-miterlimit:10;}
	.st33{fill:#FFFFFD;}
</style>
<g>
	<g>
		<path class="st16" d="M98.79,172.12l15.23-6.71c2.24-2.28,6.94-1.12,5.35-5.77l-1.48-2.56c-0.46-0.8-1.03-1.54-1.72-2.17
			c-7.71-6.99-13.72,1.72-16.8,3.08l-2.79,3.04c-3.23,1.42-7.35,3.47-6.13,6.83l0.26,0.71C91.92,171.95,95.56,173.54,98.79,172.12z"
			/>
		<polygon class="st16" points="104.95,168.98 91.93,175.01 84.44,155.3 97.46,149.28 		"/>
	</g>
	<path class="st17" d="M57.88,137.3h-5.17c-6.97,0-12.68-2.81-12.68-12.77V97.09c0-7.02,4.06-12.77,11.03-12.77h6.81
		c6.97,0,12.68,5.75,12.68,12.77v27.44C70.56,131.55,64.85,137.3,57.88,137.3z"/>
	<path class="st17" d="M90,137.3h-4.74c-6.4,0-11.64-2.69-11.64-12.2V98.9c0-6.71,3.72-12.2,10.12-12.2H90
		c6.4,0,11.64,5.49,11.64,12.2v26.2C101.63,131.81,96.4,137.3,90,137.3z"/>
	<path class="st18" d="M31.84,87.41c-1.27,3.98-1.29,0-2.89,0s-2.89-3.39-2.89-7.57c0-4.18,1.29-7.57,2.89-7.57
		S33.06,83.59,31.84,87.41z"/>
	<path class="st18" d="M27.11,76.73c3.87,7.77,4.23,11.43,1.2,13.36s-7.55-1.69-12.16-6.37c-4.06-4.11-2.13-10.86,0.9-12.79
		S24.14,70.74,27.11,76.73z"/>
	<g>
		<path class="st18" d="M106.13,118.52c1.81-3.77,1.28,0.18,2.86,0.39c1.58,0.22,2.4,3.75,1.83,7.89c-0.57,4.14-2.31,7.32-3.9,7.1
			C105.35,133.68,104.4,122.13,106.13,118.52z"/>
		<path class="st18" d="M109.36,129.74c-2.77-8.23-2.63-11.9,0.63-13.4c3.26-1.5,8.43,1.76,11.18,7.97
			c2.34,5.28,0.62,11.04-2.64,12.54C115.27,138.36,111.49,136.08,109.36,129.74z"/>
	</g>
	<path class="st19" d="M28.37,85.12c0,0,21.78,15.11,32.48,14.52"/>
	<path class="st19" d="M112.19,120.37c0,0-9.19-25.61-23.11-21.96"/>
	<path class="st19" d="M90.28,150.33c0,0-0.93-4.37-6.6-11.41"/>
	<path class="st19" d="M64.97,138.92c0,0-3.42,3.47-6.49,13.44"/>
	<path class="st20" d="M76.84,147.15h-2.56c-7.64,0-20.07-9.55-20.07-26.35v-18.62c0-5.02,3.21-9.49,8.01-11.13
		c1.79-0.61,3.78-1.06,5.88-1.06h12.35c7.64,0,13.9,5.99,13.9,12.98v26.97C94.35,137.6,84.48,147.15,76.84,147.15z"/>
	<path class="st21" d="M56.12,91.35c0,0,13.35,8.85,34.69-1.35"/>
	<path class="st22" d="M55.13,131.25c0,0,14.24,5.83,36.98-0.89"/>
	<path class="st16" d="M40.04,71.13L40.04,71.13c-3.59,0-6.52,0-6.52-6.52V56.2c0-3.59,1.48-5.22,6.52-5.22h0
		c3.59,0,6.52,2.93,6.52,6.52v7.11C46.56,68.2,43.62,71.13,40.04,71.13z"/>
	<path class="st16" d="M101.46,71.71L101.46,71.71c-3.91,0-7.11-2.93-7.11-6.5V56c0-3.58,3.2-6.5,7.11-6.5h0
		c3.91,0,7.11-1.78,7.11,6.5v9.21C108.57,71.71,105.37,71.71,101.46,71.71z"/>
	<path class="st20" d="M101.46,60.51c0,24.74-11.85,30.96-30.67,31.85c-14.55,0.69-32.15-8.59-30.67-31.85
		c1.12-17.56,13.73-31.85,30.67-31.85S101.46,42.91,101.46,60.51z"/>
	<path class="st23" d="M96.09,62.04c0,19.14-9.93,23.95-25.7,24.64c-12.19,0.53-26.95-6.65-25.7-24.64
		c0.94-13.58,11.51-24.64,25.7-24.64S96.09,48.44,96.09,62.04z"/>
	<g>
		<defs>
			<path id="SVGID_1_" d="M96.09,62.04c0,19.14-9.93,23.95-25.7,24.64c-12.19,0.53-26.95-6.65-25.7-24.64
				c0.94-13.58,11.51-24.64,25.7-24.64S96.09,48.44,96.09,62.04z"/>
		</defs>
		<clipPath id="SVGID_2_">
			<use xlink:href="#SVGID_1_"  style="overflow:visible;"/>
		</clipPath>
		<path class="st24" d="M72.86,34.72c0,0,2.37,24.37-20.15,49.96"/>
		<path class="st25" d="M87.53,40.45c0,0,2.37,24.37-20.15,49.96"/>
	</g>
	<line class="st26" x1="24.31" y1="91.17" x2="32.09" y2="79.57"/>
	<line class="st26" x1="84.14" y1="153.76" x2="97.16" y2="148.69"/>
	<line class="st26" x1="105.21" y1="122.62" x2="118.42" y2="118.11"/>
	<path class="st27" d="M48.46,102.93c0.64,3.06-14.38-3.86-13.19-5.92c1.19-2.06,6.07-3.16,9.37-1.26
		C47.94,97.66,47.95,100.48,48.46,102.93z"/>
	<path class="st27" d="M100.97,94.88c1.91-3.06,10.6,8.21,10.13,8.91c-1.37,2.04-8.37,1.35-10.14-1.15
		C99.2,100.13,99.6,97.08,100.97,94.88z"/>
	<g>
		<g>
			<path class="st16" d="M54.17,171.27l-14.2-4.54c-4.88-1.72-12.2-0.4-6.44-9.59l0,0c0.02-0.1,0.06-0.19,0.11-0.27
				c6.52-9.51,13.98-1.16,17.29,0.02c0.07,0.03,0.13,0.06,0.19,0.11l2.89,2.55c0.07,0.06,0.14,0.1,0.22,0.13
				c3.26,1.05,7.35,2.61,6.67,6.06l0,0.01C60.14,169.63,56.52,171.86,54.17,171.27z"/>
			<path class="st16" d="M46.64,171.1l12.01,4.08c0.36,0.12,0.75-0.11,0.84-0.49l4.1-19.14c0.07-0.34-0.11-0.67-0.43-0.78
				l-12.01-4.08c-0.36-0.12-0.75,0.11-0.84,0.49l-4.1,19.14C46.14,170.65,46.33,170.99,46.64,171.1z"/>
		</g>
		<line class="st26" x1="51.12" y1="150.04" x2="64.2" y2="155.19"/>
		<g>
			<path class="st28" d="M58.98,177.26c-0.36-0.08-0.26-0.42-0.6-0.55c-0.35-0.13-0.45,0.16-0.8,0.03
				c-0.35-0.13-0.24-0.42-0.59-0.54c-0.35-0.13-0.45,0.16-0.8,0.03c-0.35-0.13-0.24-0.42-0.58-0.54c-0.35-0.13-0.45,0.16-0.8,0.03
				c-0.34-0.13-0.24-0.41-0.58-0.54c-0.34-0.13-0.45,0.16-0.8,0.03c-0.34-0.13-0.24-0.41-0.58-0.54c-0.34-0.13-0.45,0.16-0.8,0.03
				c-0.34-0.13-0.24-0.41-0.58-0.54c-0.35-0.13-0.45,0.16-0.8,0.03c-0.35-0.13-0.24-0.42-0.59-0.54c-0.35-0.13-0.45,0.16-0.8,0.03
				c-0.35-0.13-0.24-0.42-0.59-0.54c-0.35-0.13-0.45,0.16-0.8,0.03c-0.35-0.13-0.24-0.42-0.58-0.54c-0.35-0.13-0.45,0.16-0.8,0.03
				c-0.35-0.13-0.24-0.42-0.58-0.54c-0.35-0.13-0.45,0.16-0.8,0.03c-0.35-0.13-0.24-0.42-0.59-0.54c-0.35-0.13-0.45,0.16-0.8,0.03
				c-0.35-0.13-0.24-0.42-0.59-0.54c-0.34-0.13-0.45,0.16-0.79,0.03c-0.34-0.13-0.24-0.41-0.58-0.54c-0.34-0.13-0.45,0.16-0.79,0.03
				c-0.34-0.13-0.24-0.41-0.58-0.54c-0.35-0.13-0.45,0.16-0.8,0.03c-0.35-0.13-0.24-0.42-0.59-0.54c-0.35-0.13-0.45,0.16-0.8,0.03
				c-0.35-0.13-0.24-0.42-0.58-0.54c-0.35-0.13-0.45,0.16-0.8,0.03c-0.35-0.13-0.24-0.42-0.59-0.55c-0.35-0.13-0.45,0.16-0.8,0.03
				c-0.35-0.13-0.24-0.42-0.59-0.54c-0.35-0.13-0.45,0.16-0.8,0.03c-0.35-0.13-0.24-0.42-0.59-0.55c-0.35-0.13-0.45,0.16-0.8,0.03
				c-0.35-0.13-0.24-0.42-0.59-0.54c-0.35-0.13-0.46,0.16-0.8,0.03c-0.35-0.13-0.24-0.42-0.59-0.55c-0.35-0.13-0.46,0.16-0.81,0.03
				c-0.35-0.13-0.24-0.37-0.58-0.54c-0.04-0.02-0.2,0.04-0.18,0c0.01-0.04,0.3,0.06,0.32,0.02c0.01-0.04-0.27-0.14-0.26-0.19
				c0.01-0.04,0.3,0.06,0.32,0.02c0.01-0.04-0.27-0.14-0.26-0.19c0.01-0.04,0.3,0.06,0.32,0.02c0.01-0.04-0.27-0.14-0.26-0.18
				c0.01-0.04,0.3,0.07,0.32,0.03c0.01-0.04-0.27-0.14-0.26-0.18c0.01-0.04,0.3,0.07,0.32,0.03c0.01-0.04-0.27-0.14-0.26-0.18
				c0.01-0.04,0.3,0.06,0.32,0.03c0.01-0.04-0.27-0.14-0.26-0.18c0.01-0.04,0.3,0.06,0.32,0.03c0.01-0.04-0.27-0.14-0.26-0.18
				c0.01-0.04,0.3,0.06,0.32,0.02c0.01-0.04-0.27-0.14-0.26-0.18c0.01-0.04,0.3,0.06,0.32,0.02c0.01-0.04-0.27-0.14-0.26-0.19
				c0.02-0.04,0.3,0.06,0.32,0.02c0.02-0.04-0.27-0.15-0.26-0.19c0.02-0.04,0.3,0.06,0.32,0.02c0.01-0.04-0.27-0.15-0.26-0.19
				c0.01-0.04,0.3,0.06,0.32,0.02c0.01-0.04-0.27-0.14-0.26-0.19c0.01-0.04,0.3,0.06,0.32,0.02c0.01-0.04-0.27-0.14-0.26-0.19
				c0.01-0.04,0.3,0.06,0.32,0.02c0.01-0.04-0.27-0.14-0.26-0.19c0.01-0.04,0.3,0.06,0.32,0.02c0.02-0.04-0.27-0.15-0.26-0.19
				c0.02-0.04,0.3,0.06,0.32,0.02c0.01-0.04-0.27-0.14-0.26-0.18c0.01-0.04,0.3,0.06,0.32,0.02c0.01-0.04-0.27-0.14-0.26-0.19
				c0.02-0.04,0.3,0.06,0.32,0.02c0.02-0.04-0.27-0.15-0.26-0.19c0.02-0.04,0.3,0.06,0.32,0.02c0.02-0.04-0.27-0.15-0.26-0.19
				c0.02-0.04,0.3,0.06,0.32,0.02c0.02-0.04-0.27-0.15-0.26-0.19c0.02-0.05,0.3,0.06,0.32,0.01s-0.13-0.3-0.08-0.29
				c0.35,0.07,0.26,0.41,0.6,0.53c0.34,0.12,0.44-0.17,0.78-0.05c0.34,0.12,0.24,0.41,0.58,0.53c0.34,0.12,0.44-0.17,0.78-0.05
				c0.34,0.12,0.24,0.41,0.58,0.53c0.34,0.12,0.44-0.17,0.78-0.05c0.34,0.12,0.24,0.41,0.58,0.53c0.34,0.12,0.44-0.17,0.78-0.05
				c0.34,0.12,0.24,0.41,0.58,0.53c0.34,0.12,0.44-0.17,0.78-0.05c0.34,0.12,0.24,0.41,0.58,0.53c0.34,0.12,0.44-0.17,0.78-0.05
				c0.34,0.12,0.24,0.41,0.58,0.53c0.34,0.12,0.44-0.17,0.79-0.05c0.34,0.12,0.24,0.41,0.58,0.53c0.34,0.12,0.44-0.17,0.78-0.05
				c0.34,0.12,0.24,0.41,0.58,0.53c0.34,0.12,0.44-0.17,0.78-0.05c0.34,0.12,0.24,0.41,0.58,0.53c0.34,0.12,0.44-0.17,0.78-0.05
				c0.34,0.12,0.24,0.41,0.58,0.53c0.34,0.12,0.44-0.17,0.78-0.05c0.34,0.12,0.24,0.41,0.58,0.53c0.34,0.12,0.44-0.17,0.78-0.05
				c0.34,0.12,0.24,0.41,0.57,0.53c0.34,0.12,0.44-0.17,0.78-0.05c0.34,0.12,0.24,0.41,0.58,0.53c0.34,0.12,0.44-0.17,0.78-0.05
				c0.34,0.12,0.24,0.41,0.58,0.53c0.34,0.12,0.44-0.17,0.78-0.05c0.34,0.12,0.24,0.41,0.58,0.53c0.34,0.12,0.44-0.17,0.78-0.05
				c0.34,0.12,0.24,0.41,0.58,0.53c0.34,0.12,0.44-0.17,0.79-0.05c0.34,0.12,0.24,0.41,0.58,0.53c0.34,0.12,0.45-0.17,0.79-0.05
				c0.34,0.12,0.24,0.41,0.58,0.53c0.34,0.12,0.44-0.17,0.79-0.05c0.34,0.12,0.24,0.41,0.58,0.53c0.34,0.12,0.45-0.17,0.79-0.05
				c0.34,0.12,0.24,0.41,0.59,0.53c0.34,0.12,0.45-0.17,0.79-0.04s0.24,0.36,0.57,0.53c0.04,0.02,0.21-0.06,0.2-0.01
				c-0.01,0.05-0.31-0.01-0.32,0.04c-0.01,0.05,0.29,0.11,0.28,0.16c-0.01,0.05-0.31-0.01-0.32,0.04c-0.01,0.05,0.29,0.11,0.28,0.16
				c-0.01,0.05-0.31-0.01-0.32,0.04c-0.01,0.05,0.29,0.11,0.28,0.16c-0.01,0.05-0.31-0.01-0.32,0.04c-0.01,0.05,0.29,0.11,0.28,0.16
				c-0.01,0.05-0.31-0.01-0.32,0.04c-0.01,0.05,0.29,0.11,0.28,0.16c-0.01,0.05-0.31-0.01-0.32,0.04c-0.01,0.05,0.29,0.11,0.28,0.15
				c-0.01,0.05-0.31-0.01-0.32,0.03c-0.01,0.05,0.29,0.11,0.28,0.15c-0.01,0.05-0.31-0.01-0.32,0.03c-0.01,0.05,0.29,0.11,0.28,0.15
				c-0.01,0.05-0.31-0.01-0.32,0.04c-0.01,0.05,0.29,0.11,0.28,0.16c-0.01,0.05-0.31-0.01-0.32,0.04c-0.01,0.05,0.29,0.11,0.28,0.16
				c-0.01,0.05-0.31-0.01-0.32,0.04c-0.01,0.05,0.29,0.11,0.28,0.16c-0.01,0.05-0.31-0.01-0.32,0.04c-0.01,0.05,0.29,0.11,0.28,0.16
				c-0.01,0.05-0.31-0.01-0.32,0.04c-0.01,0.05,0.29,0.11,0.28,0.16c-0.01,0.05-0.31-0.01-0.32,0.04c-0.01,0.05,0.29,0.11,0.28,0.16
				c-0.01,0.05-0.31-0.01-0.32,0.04c-0.01,0.05,0.29,0.11,0.28,0.16c-0.01,0.05-0.31-0.01-0.32,0.04c-0.01,0.05,0.29,0.11,0.28,0.16
				c-0.01,0.05-0.31-0.01-0.32,0.04c-0.01,0.05,0.29,0.11,0.28,0.15c-0.01,0.05-0.31-0.01-0.32,0.04c-0.01,0.05,0.29,0.11,0.28,0.16
				c-0.01,0.05-0.31-0.01-0.32,0.04c-0.01,0.05,0.29,0.11,0.28,0.16c-0.01,0.05-0.31-0.01-0.32,0.04c-0.01,0.05,0.29,0.11,0.28,0.16
				c-0.01,0.05-0.32,0.01-0.32,0.07C58.87,177.13,59.03,177.27,58.98,177.26z"/>
		</g>
		<g>
			<path class="st28" d="M120,165.45c-0.3,0.18-0.45-0.11-0.77,0.02c-0.32,0.14-0.21,0.4-0.53,0.54c-0.32,0.14-0.43-0.12-0.75,0.02
				c-0.32,0.14-0.21,0.4-0.53,0.54c-0.32,0.14-0.43-0.12-0.75,0.02c-0.32,0.14-0.21,0.4-0.53,0.53c-0.32,0.14-0.43-0.12-0.75,0.02
				c-0.32,0.14-0.21,0.4-0.52,0.53c-0.32,0.14-0.43-0.12-0.75,0.01c-0.32,0.14-0.21,0.4-0.52,0.53c-0.32,0.14-0.43-0.12-0.75,0.02
				c-0.32,0.14-0.21,0.4-0.53,0.54c-0.32,0.14-0.43-0.12-0.75,0.02c-0.32,0.14-0.21,0.4-0.53,0.54c-0.32,0.14-0.43-0.12-0.75,0.02
				c-0.32,0.14-0.21,0.4-0.53,0.54c-0.32,0.14-0.43-0.12-0.75,0.02c-0.32,0.14-0.21,0.4-0.53,0.54c-0.32,0.14-0.43-0.12-0.75,0.02
				c-0.32,0.14-0.21,0.4-0.53,0.54c-0.32,0.14-0.43-0.12-0.75,0.02c-0.32,0.14-0.21,0.4-0.53,0.54c-0.32,0.14-0.43-0.12-0.75,0.01
				c-0.32,0.14-0.21,0.4-0.52,0.53c-0.32,0.14-0.43-0.12-0.75,0.01c-0.32,0.14-0.21,0.4-0.52,0.53c-0.32,0.14-0.43-0.12-0.75,0.02
				c-0.32,0.14-0.21,0.4-0.53,0.54c-0.32,0.14-0.43-0.12-0.75,0.02c-0.32,0.14-0.21,0.4-0.53,0.54c-0.32,0.14-0.43-0.12-0.75,0.02
				c-0.32,0.14-0.21,0.4-0.53,0.54c-0.32,0.14-0.43-0.12-0.76,0.02c-0.32,0.14-0.21,0.4-0.53,0.54c-0.32,0.14-0.43-0.12-0.75,0.02
				c-0.32,0.14-0.21,0.4-0.53,0.54c-0.32,0.14-0.43-0.12-0.75,0.02c-0.32,0.14-0.21,0.4-0.53,0.54c-0.32,0.14-0.43-0.12-0.75,0.02
				c-0.32,0.14-0.21,0.4-0.53,0.54c-0.32,0.14-0.43-0.12-0.76,0.02c-0.32,0.14-0.21,0.4-0.54,0.54c-0.32,0.14-0.41-0.09-0.75,0.01
				c-0.04,0.01-0.1,0.13-0.11,0.1c-0.01-0.04,0.27-0.1,0.26-0.14c-0.01-0.03-0.28,0.03-0.29,0c-0.01-0.03,0.27-0.1,0.26-0.14
				c-0.01-0.03-0.28,0.03-0.29,0c-0.01-0.03,0.27-0.1,0.26-0.14c-0.01-0.03-0.28,0.03-0.29,0c-0.01-0.03,0.27-0.1,0.26-0.14
				c-0.01-0.03-0.28,0.03-0.29,0c-0.01-0.03,0.27-0.1,0.26-0.14c-0.01-0.03-0.28,0.03-0.29,0c-0.01-0.04,0.27-0.1,0.26-0.14
				c-0.01-0.04-0.28,0.03-0.29,0c-0.01-0.04,0.27-0.1,0.26-0.14c-0.01-0.04-0.28,0.03-0.29,0c-0.01-0.04,0.27-0.1,0.26-0.14
				c-0.01-0.04-0.28,0.03-0.29-0.01c-0.01-0.04,0.27-0.11,0.26-0.14c-0.01-0.04-0.28,0.03-0.29-0.01c-0.01-0.04,0.27-0.11,0.26-0.14
				c-0.01-0.04-0.28,0.03-0.29-0.01c-0.01-0.04,0.27-0.11,0.26-0.14c-0.01-0.04-0.28,0.03-0.29-0.01c-0.01-0.04,0.27-0.11,0.26-0.14
				c-0.01-0.04-0.28,0.03-0.29-0.01c-0.01-0.04,0.27-0.11,0.26-0.14c-0.01-0.04-0.28,0.03-0.29-0.01c-0.01-0.04,0.27-0.11,0.26-0.14
				c-0.01-0.04-0.28,0.03-0.29-0.01c-0.01-0.04,0.27-0.11,0.26-0.14c-0.01-0.04-0.28,0.03-0.29-0.01c-0.01-0.04,0.27-0.1,0.26-0.14
				c-0.01-0.04-0.28,0.03-0.29,0c-0.01-0.04,0.27-0.1,0.26-0.14c-0.01-0.04-0.28,0.03-0.29-0.01c-0.01-0.04,0.27-0.11,0.26-0.14
				c-0.01-0.04-0.28,0.03-0.29-0.01c-0.01-0.04,0.26-0.11,0.25-0.15c-0.01-0.04-0.28,0.03-0.29-0.01c-0.01-0.04,0.26-0.11,0.26-0.15
				c-0.01-0.04-0.28,0.03-0.29-0.01c-0.01-0.04,0.26-0.11,0.25-0.15c-0.01-0.04-0.27-0.15-0.23-0.17c0.31-0.18,0.46,0.1,0.78-0.04
				c0.33-0.15,0.21-0.4,0.54-0.55c0.33-0.15,0.44,0.11,0.77-0.04c0.33-0.15,0.21-0.41,0.54-0.55c0.33-0.15,0.44,0.11,0.77-0.04
				c0.33-0.15,0.21-0.4,0.54-0.55c0.33-0.15,0.44,0.11,0.77-0.04c0.33-0.15,0.21-0.4,0.54-0.55c0.33-0.15,0.44,0.11,0.77-0.04
				c0.33-0.15,0.21-0.4,0.54-0.55c0.33-0.15,0.44,0.11,0.77-0.04c0.33-0.15,0.21-0.4,0.54-0.55c0.33-0.15,0.44,0.11,0.77-0.04
				c0.33-0.15,0.21-0.41,0.54-0.55c0.33-0.15,0.44,0.11,0.77-0.04c0.33-0.15,0.21-0.41,0.54-0.55c0.33-0.15,0.44,0.11,0.77-0.04
				c0.33-0.15,0.21-0.4,0.54-0.55c0.33-0.15,0.44,0.11,0.77-0.04c0.33-0.15,0.21-0.41,0.54-0.55c0.33-0.15,0.44,0.11,0.77-0.04
				c0.33-0.15,0.21-0.41,0.54-0.55c0.33-0.15,0.44,0.11,0.77-0.03c0.33-0.15,0.21-0.4,0.53-0.55c0.33-0.15,0.44,0.11,0.77-0.03
				c0.33-0.15,0.21-0.4,0.53-0.55c0.33-0.15,0.44,0.11,0.77-0.04c0.33-0.15,0.21-0.41,0.54-0.55c0.33-0.15,0.44,0.11,0.77-0.04
				c0.33-0.15,0.21-0.41,0.54-0.55c0.33-0.15,0.44,0.11,0.77-0.04c0.33-0.15,0.21-0.41,0.54-0.55c0.33-0.15,0.45,0.11,0.77-0.04
				c0.33-0.15,0.21-0.41,0.54-0.55c0.33-0.15,0.44,0.11,0.77-0.04c0.33-0.15,0.21-0.41,0.54-0.55c0.33-0.15,0.44,0.11,0.77-0.04
				c0.33-0.15,0.21-0.41,0.54-0.55c0.33-0.15,0.44,0.11,0.77-0.04c0.33-0.15,0.21-0.41,0.54-0.55c0.33-0.15,0.45,0.11,0.78-0.04
				c0.33-0.15,0.22-0.41,0.55-0.56c0.33-0.15,0.42,0.07,0.76-0.03c0.04-0.01,0.1-0.09,0.1-0.05c0,0.05-0.28,0.06-0.28,0.1
				c0,0.05,0.28,0.04,0.29,0.08c0,0.05-0.28,0.06-0.28,0.1c0,0.05,0.28,0.04,0.29,0.08c0,0.05-0.28,0.06-0.28,0.1
				c0,0.05,0.28,0.04,0.29,0.08c0,0.05-0.28,0.06-0.28,0.1c0,0.05,0.28,0.04,0.29,0.08c0,0.05-0.28,0.06-0.28,0.1
				c0,0.04,0.28,0.03,0.29,0.08c0,0.04-0.28,0.05-0.28,0.1c0,0.04,0.28,0.03,0.29,0.08c0,0.04-0.28,0.05-0.28,0.1
				c0,0.04,0.28,0.03,0.29,0.08c0,0.04-0.28,0.05-0.28,0.1c0,0.05,0.28,0.04,0.29,0.08c0,0.05-0.28,0.06-0.28,0.1
				c0,0.05,0.28,0.04,0.29,0.08c0,0.05-0.28,0.06-0.28,0.1c0,0.05,0.28,0.04,0.29,0.08c0,0.05-0.28,0.06-0.28,0.1
				c0,0.05,0.28,0.04,0.29,0.08c0,0.05-0.28,0.06-0.28,0.1c0,0.05,0.28,0.04,0.29,0.08c0,0.05-0.28,0.06-0.28,0.1
				c0,0.05,0.28,0.04,0.29,0.08c0,0.05-0.28,0.06-0.28,0.1c0,0.05,0.28,0.04,0.29,0.08c0,0.05-0.28,0.06-0.28,0.1
				c0,0.05,0.28,0.04,0.29,0.08c0,0.05-0.28,0.06-0.28,0.1c0,0.05,0.28,0.04,0.29,0.09c0,0.04-0.28,0.05-0.28,0.1
				c0,0.05,0.28,0.04,0.29,0.08c0,0.05-0.28,0.06-0.28,0.1c0,0.05,0.28,0.04,0.29,0.09c0,0.05-0.28,0.06-0.28,0.11
				c0,0.05,0.28,0.04,0.29,0.09c0,0.05-0.28,0.06-0.28,0.1c0,0.05,0.28,0.04,0.29,0.09c0,0.05-0.29,0.11-0.27,0.16
				C119.84,165.4,120.04,165.42,120,165.45z"/>
		</g>
	</g>
	<path class="st29" d="M84.42,103.53c0.6,7.63-3.05,7.69-9.97,7.76c-5.55,0.06-8.6,0.06-9.26-4.5c-1.69-11.53,2.32-6.02,9.51-7.25
		C82.42,98.22,83.96,97.7,84.42,103.53z"/>
	<path class="st30" d="M89.46,167.72c0,0,7.41-7.19,8.15,3.74"/>
	<path class="st30" d="M54.2,172.99c0,0,1.18-11.73,7.95-7.14"/>
	<circle class="st17" cx="85.48" cy="120.37" r="2.66"/>
	<circle class="st17" cx="68.78" cy="103.02" r="1.98"/>
	<circle class="st17" cx="68.78" cy="107.53" r="1.98"/>
	<path class="st31" d="M85.66,120.7c0,0-2.37,20.08,10.07,12.59c0,0,4.44-1.98-1.48-9.03c0,0-3.32-6.75,3.08-5.86"/>
	<path class="st32" d="M72.45,103.46c0,0,5.56,0.97,9.11-1.12"/>
	<path class="st32" d="M72.45,107.98c0,0,5.56,0.97,9.11-1.12"/>
</g>
</svg>
